<svg width="1600" height="1200" viewBox="0 0 1600 1200" fill="none" xmlns="http://www.w3.org/2000/svg">
<rect width="1600" height="1200" rx="48" fill="#0A1120"/>
<circle cx="1324" cy="216" r="278" fill="#7D86FF" fill-opacity="0.18"/>
<circle cx="264" cy="986" r="328" fill="#67D7D2" fill-opacity="0.15"/>
<rect x="112" y="122" width="1376" height="956" rx="40" fill="#0D172A" stroke="#243553"/>
<rect x="184" y="194" width="252" height="22" rx="11" fill="#7D86FF"/>
<rect x="184" y="252" width="584" height="34" rx="17" fill="#F4F7FF" fill-opacity="0.95"/>
<rect x="184" y="304" width="504" height="20" rx="10" fill="#97A6C6" fill-opacity="0.46"/>
<rect x="188" y="412" width="620" height="560" rx="36" fill="#101B31" stroke="#293A5D"/>
<rect x="852" y="412" width="444" height="560" rx="36" fill="#101B31" stroke="#293A5D"/>
<rect x="248" y="486" width="500" height="268" rx="30" fill="url(#a)"/>
<rect x="300" y="814" width="194" height="18" rx="9" fill="#F5F7FF" fill-opacity="0.92"/>
<rect x="300" y="850" width="142" height="14" rx="7" fill="#92A2C4" fill-opacity="0.48"/>
<rect x="912" y="486" width="324" height="136" rx="28" fill="#121F39"/>
<rect x="912" y="656" width="324" height="136" rx="28" fill="#121F39"/>
<rect x="912" y="826" width="324" height="88" rx="28" fill="#121F39"/>
<path d="M972 542H1176" stroke="#F5F7FF" stroke-opacity="0.92" stroke-width="14" stroke-linecap="round"/>
<path d="M972 584H1096" stroke="#97A6C6" stroke-opacity="0.6" stroke-width="10" stroke-linecap="round"/>
<path d="M972 712H1176" stroke="#F5F7FF" stroke-opacity="0.92" stroke-width="14" stroke-linecap="round"/>
<path d="M972 754H1118" stroke="#97A6C6" stroke-opacity="0.6" stroke-width="10" stroke-linecap="round"/>
<path d="M972 862H1090" stroke="#F5F7FF" stroke-opacity="0.92" stroke-width="14" stroke-linecap="round"/>
<defs><linearGradient id="a" x1="248" y1="486" x2="748" y2="754" gradientUnits="userSpaceOnUse"><stop stop-color="#6E9FFF"/><stop offset="0.5" stop-color="#7D86FF"/><stop offset="1" stop-color="#67D7D2"/></linearGradient></defs>
</svg>