<svg width="1200" height="720" viewBox="0 0 1200 720" fill="none" xmlns="http://www.w3.org/2000/svg">
  <rect width="1200" height="720" rx="36" fill="#0B1020"/>
  <rect x="48" y="48" width="1104" height="624" rx="28" fill="#111936" stroke="#23325F"/>
  <text x="84" y="118" fill="#F8FAFC" font-size="42" font-family="Arial, Helvetica, sans-serif" font-weight="700">AI 客户培育最小闭环</text>
  <text x="84" y="156" fill="#A5B4FC" font-size="22" font-family="Arial, Helvetica, sans-serif">搜索进入 → 继续阅读 → 补信息 → 判断适配 → 预约沟通</text>

  <rect x="82" y="224" width="196" height="156" rx="24" fill="#1E2B57" stroke="#4F6BFF"/>
  <text x="110" y="274" fill="#E0E7FF" font-size="28" font-family="Arial, Helvetica, sans-serif" font-weight="700">01 搜索进入</text>
  <text x="110" y="320" fill="#CBD5E1" font-size="20" font-family="Arial, Helvetica, sans-serif">入门词 / 问题词</text>
  <text x="110" y="350" fill="#CBD5E1" font-size="20" font-family="Arial, Helvetica, sans-serif">先匹配文章入口</text>

  <rect x="304" y="224" width="196" height="156" rx="24" fill="#143A52" stroke="#38BDF8"/>
  <text x="332" y="274" fill="#E0F2FE" font-size="28" font-family="Arial, Helvetica, sans-serif" font-weight="700">02 继续阅读</text>
  <text x="332" y="320" fill="#D1FAE5" font-size="20" font-family="Arial, Helvetica, sans-serif">主文章 / FAQ</text>
  <text x="332" y="350" fill="#D1FAE5" font-size="20" font-family="Arial, Helvetica, sans-serif">给轻量下一步</text>

  <rect x="526" y="224" width="196" height="156" rx="24" fill="#3B2A63" stroke="#A78BFA"/>
  <text x="554" y="274" fill="#F3E8FF" font-size="28" font-family="Arial, Helvetica, sans-serif" font-weight="700">03 补信息</text>
  <text x="554" y="320" fill="#E9D5FF" font-size="20" font-family="Arial, Helvetica, sans-serif">业务 / 卡点 / 目标</text>
  <text x="554" y="350" fill="#E9D5FF" font-size="20" font-family="Arial, Helvetica, sans-serif">只收关键 3 项</text>

  <rect x="748" y="224" width="196" height="156" rx="24" fill="#4A2D2D" stroke="#F59E0B"/>
  <text x="776" y="274" fill="#FEF3C7" font-size="28" font-family="Arial, Helvetica, sans-serif" font-weight="700">04 判断适配</text>
  <text x="776" y="320" fill="#FDE68A" font-size="20" font-family="Arial, Helvetica, sans-serif">案例 / 标准 / 边界</text>
  <text x="776" y="350" fill="#FDE68A" font-size="20" font-family="Arial, Helvetica, sans-serif">不用高压催单</text>

  <rect x="970" y="224" width="146" height="156" rx="24" fill="#3F2A4B" stroke="#F472B6"/>
  <text x="996" y="274" fill="#FCE7F3" font-size="28" font-family="Arial, Helvetica, sans-serif" font-weight="700">05 收口</text>
  <text x="996" y="320" fill="#FBCFE8" font-size="20" font-family="Arial, Helvetica, sans-serif">微信 / 电话</text>
  <text x="996" y="350" fill="#FBCFE8" font-size="20" font-family="Arial, Helvetica, sans-serif">预约沟通</text>

  <path d="M278 302H300" stroke="#7DD3FC" stroke-width="8" stroke-linecap="round"/>
  <path d="M500 302H522" stroke="#C4B5FD" stroke-width="8" stroke-linecap="round"/>
  <path d="M722 302H744" stroke="#FCD34D" stroke-width="8" stroke-linecap="round"/>
  <path d="M944 302H966" stroke="#F9A8D4" stroke-width="8" stroke-linecap="round"/>
  <path d="M292 302L282 292" stroke="#7DD3FC" stroke-width="8" stroke-linecap="round"/>
  <path d="M292 302L282 312" stroke="#7DD3FC" stroke-width="8" stroke-linecap="round"/>
  <path d="M514 302L504 292" stroke="#C4B5FD" stroke-width="8" stroke-linecap="round"/>
  <path d="M514 302L504 312" stroke="#C4B5FD" stroke-width="8" stroke-linecap="round"/>
  <path d="M736 302L726 292" stroke="#FCD34D" stroke-width="8" stroke-linecap="round"/>
  <path d="M736 302L726 312" stroke="#FCD34D" stroke-width="8" stroke-linecap="round"/>
  <path d="M958 302L948 292" stroke="#F9A8D4" stroke-width="8" stroke-linecap="round"/>
  <path d="M958 302L948 312" stroke="#F9A8D4" stroke-width="8" stroke-linecap="round"/>

  <rect x="84" y="456" width="1032" height="144" rx="24" fill="#0F172A" stroke="#23325F"/>
  <text x="118" y="508" fill="#F8FAFC" font-size="28" font-family="Arial, Helvetica, sans-serif" font-weight="700">培育原则</text>
  <text x="118" y="552" fill="#CBD5E1" font-size="22" font-family="Arial, Helvetica, sans-serif">每次只推进一步：先让人继续读，再让人补信息，最后再把成熟咨询收口到真实沟通。</text>
</svg>
