<svg width="320" height="96" viewBox="0 0 320 96" fill="none" xmlns="http://www.w3.org/2000/svg">
  <defs>
    <linearGradient id="bumaRainbow" x1="24" y1="18" x2="92" y2="78" gradientUnits="userSpaceOnUse">
      <stop offset="0" stop-color="#FF6B6B"/>
      <stop offset="0.2" stop-color="#FFB86B"/>
      <stop offset="0.4" stop-color="#FFE66D"/>
      <stop offset="0.58" stop-color="#6EE7B7"/>
      <stop offset="0.78" stop-color="#60A5FA"/>
      <stop offset="1" stop-color="#A78BFA"/>
    </linearGradient>
    <linearGradient id="bumaText" x1="110" y1="24" x2="250" y2="84" gradientUnits="userSpaceOnUse">
      <stop offset="0" stop-color="#163A70"/>
      <stop offset="1" stop-color="#2A4D92"/>
    </linearGradient>
  </defs>

  <rect x="10" y="10" width="76" height="76" rx="24" fill="#ffffff"/>
  <path d="M30 58C30 43.6406 41.6406 32 56 32C70.3594 32 82 43.6406 82 58" stroke="url(#bumaRainbow)" stroke-width="8" stroke-linecap="round"/>
  <path d="M37 58C37 47.5066 45.5066 39 56 39C66.4934 39 75 47.5066 75 58" stroke="url(#bumaRainbow)" stroke-opacity="0.85" stroke-width="6" stroke-linecap="round"/>
  <path d="M44 58C44 51.3726 49.3726 46 56 46C62.6274 46 68 51.3726 68 58" stroke="url(#bumaRainbow)" stroke-opacity="0.72" stroke-width="4.5" stroke-linecap="round"/>
  <circle cx="56" cy="58" r="5" fill="#163A70"/>
  <path d="M48 64H64" stroke="#163A70" stroke-width="3.5" stroke-linecap="round"/>

  <path d="M111.389 71V24.8182H129.48C132.904 24.8182 135.759 25.3788 138.043 26.5C140.327 27.6212 142.04 29.1439 143.184 31.0682C144.327 32.9924 144.899 35.1629 144.899 37.5795C144.899 39.4848 144.547 41.1326 143.843 42.5227C143.138 43.9129 142.187 45.0568 140.99 45.9545C139.812 46.8333 138.49 47.4697 137.024 47.8636V48.3182C138.623 48.3939 140.165 48.9545 141.649 50C143.153 51.0265 144.383 52.4735 145.342 54.3409C146.301 56.2083 146.781 58.4545 146.781 61.0795C146.781 63.6477 146.184 65.9508 144.99 67.9886C143.797 70.0076 141.99 71.6061 139.571 72.7841C137.153 73.9432 134.108 74.5227 130.436 74.5227H111.389V71ZM121.365 44.9545H127.706C129.097 44.9545 130.323 44.7008 131.388 44.1932C132.47 43.6856 133.317 42.9747 133.928 42.0611C134.555 41.1288 134.868 40.0227 134.868 38.7424C134.868 37.0076 134.254 35.6212 133.024 34.5833C131.812 33.5455 130.086 33.0265 127.843 33.0265H121.365V44.9545ZM121.365 66.3182H128.434C130.852 66.3182 132.614 65.8561 133.718 64.9318C134.824 63.9886 135.377 62.7348 135.377 61.1705C135.377 60.0379 135.106 59.0189 134.563 58.1136C134.02 57.2083 133.242 56.4924 132.229 55.9659C131.236 55.4394 130.042 55.1705 128.647 55.1591H121.365V66.3182Z" fill="url(#bumaText)"/>
  <path d="M181.533 54.1477V34.5H191.328V74H181.921V66.8295H181.511C180.625 69.1477 179.148 71.0076 177.08 72.4091C175.034 73.8106 172.557 74.5114 169.648 74.5114C167.061 74.5114 164.791 73.9205 162.841 72.7386C160.894 71.5568 159.375 69.8788 158.284 67.7045C157.212 65.5303 156.67 62.9394 156.659 59.9318V34.5H166.455V58.1818C166.47 60.5606 167.11 62.4394 168.375 63.8182C169.641 65.197 171.337 65.8864 173.466 65.8864C174.821 65.8864 176.093 65.5795 177.284 64.9659C178.474 64.3333 179.436 63.4015 180.17 62.1705C180.924 60.9394 181.379 59.4318 181.533 57.6477V54.1477Z" fill="url(#bumaText)"/>
  <path d="M201.391 74V34.5H210.732V41.4659H211.186C212.008 39.1515 213.387 37.3258 215.323 35.9886C217.259 34.6515 219.573 33.9811 222.266 33.9773C224.997 33.9811 227.322 34.6553 229.243 36C231.183 37.3258 232.475 39.1477 233.118 41.4659H233.482C234.297 39.1856 235.775 37.3712 237.914 36.0227C240.072 34.6553 242.625 33.9735 245.573 33.9773C249.324 33.9773 252.365 35.1742 254.698 37.5682C257.05 39.9432 258.225 43.3144 258.225 47.6818V74H248.436V49.6136C248.436 47.4205 247.852 45.7765 246.686 44.6818C245.519 43.5871 244.05 43.0398 242.277 43.0398C240.264 43.0398 238.706 43.6818 237.607 44.9659C236.508 46.2311 235.959 47.9015 235.959 49.9773V74H226.436V49.4091C226.436 47.447 225.875 45.8864 224.754 44.7273C223.652 43.5682 222.19 42.9886 220.368 42.9886C219.136 42.9886 218.025 43.303 217.034 43.9318C216.061 44.5417 215.289 45.4053 214.72 46.5227C214.151 47.6212 213.866 48.9129 213.866 50.3977V74H204.073H201.391Z" fill="url(#bumaText)"/>
  <path d="M276.942 74.75C274.419 74.75 272.17 74.3144 270.192 73.4432C268.215 72.553 266.647 71.2424 265.487 69.5114C264.348 67.7614 263.778 65.5871 263.778 62.9886C263.778 60.7992 264.181 58.9621 264.987 57.4773C265.794 55.9924 266.893 54.7992 268.283 53.8977C269.674 52.9962 271.249 52.3144 273.01 51.8523C274.79 51.3902 276.651 51.0644 278.59 50.875C280.87 50.6402 282.708 50.4205 284.101 50.2159C285.495 49.9924 286.506 49.6629 287.135 49.2273C287.764 48.7917 288.078 48.1477 288.078 47.2955V47.1364C288.078 45.4848 287.556 44.2083 286.51 43.3068C285.484 42.4053 284.025 41.9545 282.135 41.9545C280.139 41.9545 278.552 42.3939 277.374 43.2727C276.196 44.1326 275.417 45.2121 275.033 46.5114L265.976 45.7841C266.431 43.6629 267.325 41.8295 268.658 40.2841C269.991 38.7197 271.711 37.5152 273.817 36.6705C275.945 35.8068 278.404 35.375 281.192 35.375C283.135 35.375 284.993 35.6023 286.771 36.0568C288.568 36.5114 290.159 37.2159 291.544 38.1705C292.947 39.125 294.056 40.3523 294.874 41.8523C295.692 43.3333 296.101 45.1098 296.101 47.1818V74H288.49V68.4886H288.169C287.703 69.3977 287.078 70.197 286.294 70.8864C285.51 71.5568 284.568 72.0833 283.465 72.4659C282.363 72.8485 281.188 73.0398 279.942 73.0398L276.942 74.75ZM279.237 67.9886C280.87 67.9886 282.31 67.6667 283.555 67.0227C284.801 66.3598 285.779 65.4697 286.487 64.3523C287.196 63.2348 287.55 61.9659 287.55 60.5455V56.3295C287.232 56.5341 286.795 56.7235 286.237 56.8977C285.699 57.072 285.09 57.2348 284.408 57.3864C283.726 57.5189 283.045 57.6439 282.363 57.7614C281.681 57.8598 281.064 57.9508 280.51 58.0341C279.321 58.2045 278.283 58.4773 277.396 58.8523C276.51 59.2273 275.821 59.7348 275.328 60.375C274.836 60.9962 274.59 61.7727 274.59 62.7045C274.59 64.0568 275.082 65.0909 276.067 65.8068C277.071 66.5341 278.127 66.9091 279.237 66.9318V67.9886Z" fill="url(#bumaText)"/>
</svg>