<svg width="320" height="96" viewBox="0 0 320 96" fill="none" xmlns="http://www.w3.org/2000/svg">
  <defs>
    <linearGradient id="bumaCore" x1="18" y1="18" x2="90" y2="82" gradientUnits="userSpaceOnUse">
      <stop offset="0" stop-color="#DCE7FF"/>
      <stop offset="0.34" stop-color="#9EB9FF"/>
      <stop offset="0.7" stop-color="#8F86FF"/>
      <stop offset="1" stop-color="#FFB8DB"/>
    </linearGradient>
    <linearGradient id="bumaInk" x1="104" y1="22" x2="258" y2="82" gradientUnits="userSpaceOnUse">
      <stop offset="0" stop-color="#F4F7FF"/>
      <stop offset="0.5" stop-color="#B2C8FF"/>
      <stop offset="1" stop-color="#B394FF"/>
    </linearGradient>
  </defs>

  <rect x="10" y="10" width="76" height="76" rx="24" fill="rgba(255,255,255,0.06)" stroke="rgba(255,255,255,0.14)"/>
  <path d="M34 31C34 26.5817 37.5817 23 42 23H55.2C68.8967 23 80 34.1033 80 47.8C80 61.4967 68.8967 72.6 55.2 72.6H42C37.5817 72.6 34 69.0183 34 64.6V31Z" fill="url(#bumaCore)"/>
  <path d="M46 36.5H56.2C62.6065 36.5 67.8 41.6935 67.8 48.1C67.8 54.5065 62.6065 59.7 56.2 59.7H46V36.5Z" fill="#0B1020" fill-opacity="0.88"/>
  <path d="M46 59.7H57.4C62.8796 59.7 67.4 64.2204 67.4 69.7V69.7C67.4 70.7493 66.5493 71.6 65.5 71.6H46V59.7Z" fill="#0B1020" fill-opacity="0.88"/>
  <circle cx="56.4" cy="48.1" r="2.8" fill="#DCE7FF"/>
  <path d="M51.2 64.5C52.8 66.0333 54.6333 66.8 56.7 66.8C58.7667 66.8 60.6333 66.0333 62.3 64.5" stroke="#DCE7FF" stroke-width="2.3" stroke-linecap="round"/>

  <path d="M109.634 71V25.0727H127.845C131.323 25.0727 134.209 25.603 136.504 26.6636C138.798 27.7242 140.515 29.1848 141.657 31.0455C142.798 32.8879 143.369 34.9818 143.369 37.3273C143.369 39.1697 143.032 40.7636 142.357 42.1091C141.681 43.4545 140.767 44.5697 139.614 45.4545C138.48 46.3212 137.209 46.9515 135.8 47.3455V47.7818C137.338 47.8545 138.82 48.397 140.248 49.4091C141.694 50.403 142.877 51.8 143.797 53.6C144.716 55.4 145.175 57.5606 145.175 60.0818C145.175 62.5485 144.603 64.7636 143.458 66.7273C142.313 68.6727 140.576 70.2121 138.248 71.3455C135.92 72.4606 132.987 73.0182 129.448 73.0182H109.634V71ZM119.229 44.9091H125.703C127.124 44.9091 128.375 44.6515 129.457 44.1364C130.557 43.6212 131.418 42.9 132.039 41.9727C132.679 41.0273 132.998 39.903 132.998 38.6C132.998 36.8364 132.37 35.4273 131.114 34.3727C129.876 33.3182 128.114 32.7909 125.827 32.7909H119.229V44.9091ZM119.229 65.6636H126.421C128.887 65.6636 130.684 65.1939 131.812 64.2545C132.941 63.297 133.505 62.0242 133.505 60.4364C133.505 59.2879 133.229 58.2515 132.677 57.3273C132.125 56.403 131.334 55.6727 130.303 55.1364C129.291 54.6 128.074 54.3273 126.652 54.3182H119.229V65.6636Z" fill="url(#bumaInk)"/>
  <path d="M179.272 54.5364V35.0909H188.791V74H179.649V66.9364H179.252C178.391 69.2212 176.954 71.0515 174.941 72.4273C172.948 73.803 170.535 74.4909 167.701 74.4909C165.18 74.4909 162.968 73.9121 161.066 72.7545C159.167 71.597 157.688 69.9545 156.63 67.8273C155.59 65.7 155.064 63.1636 155.052 60.2182V35.0909H164.571V58.2636C164.587 60.5909 165.208 62.4303 166.436 63.7818C167.665 65.1333 169.312 65.8091 171.378 65.8091C172.694 65.8091 173.93 65.5061 175.086 64.9C176.242 64.2758 177.177 63.3576 177.89 62.1455C178.624 60.9333 179.085 59.4485 179.272 57.6909V54.5364Z" fill="url(#bumaInk)"/>
  <path d="M198.462 74V35.0909H207.539V41.9455H207.98C208.778 39.6697 210.118 37.8727 212 36.5545C213.882 35.2364 216.131 34.5758 218.748 34.5727C221.402 34.5758 223.662 35.2394 225.528 36.5636C227.415 37.8727 228.671 39.6667 229.295 41.9455H229.649C230.441 39.703 231.878 37.9182 233.959 36.5909C236.058 35.2394 238.542 34.5636 241.412 34.5727C245.061 34.5727 248.019 35.7485 250.286 38.1C252.572 40.4333 253.715 43.7424 253.715 48.0273V74H244.191V50.1182C244.191 47.9727 243.623 46.3667 242.488 45.3C241.353 44.2333 239.923 43.7 238.197 43.7C236.238 43.7 234.722 44.3273 233.649 45.5818C232.576 46.8182 232.04 48.4515 232.04 50.4818V74H222.773V49.9182C222.773 48.003 222.226 46.4818 221.132 45.3545C220.059 44.2273 218.635 43.6636 216.86 43.6636C215.66 43.6636 214.578 43.9697 213.613 44.5818C212.667 45.1758 211.916 46.0152 211.36 47.1C210.805 48.1667 210.527 49.4212 210.527 50.8636V74H201.007H198.462Z" fill="url(#bumaInk)"/>
  <path d="M272.027 74.7455C269.573 74.7455 267.385 74.3212 265.463 73.4727C263.542 72.6061 262.018 71.3303 260.892 69.6455C259.786 67.9424 259.233 65.8273 259.233 63.3C259.233 61.1727 259.625 59.3879 260.409 57.9455C261.193 56.503 262.261 55.3424 263.613 54.4636C264.964 53.5848 266.495 52.9182 268.206 52.4636C269.938 52.0091 271.748 51.688 273.637 51.5C275.857 51.2667 277.646 51.0485 279.004 50.8455C280.362 50.6242 281.347 50.297 281.958 49.8636C282.57 49.4303 282.876 48.7909 282.876 47.9455V47.7909C282.876 46.1545 282.367 44.8909 281.351 44C280.355 43.1091 278.936 42.6636 277.094 42.6636C275.15 42.6636 273.605 43.097 272.458 43.9636C271.311 44.8121 270.553 45.8758 270.183 47.1545L261.364 46.4364C261.808 44.3455 262.679 42.5394 263.977 41.0182C265.275 39.4788 266.95 38.2939 268.999 37.4636C271.069 36.6152 273.46 36.1909 276.172 36.1909C278.06 36.1909 279.866 36.4152 281.59 36.8636C283.334 37.3121 284.879 38.0061 286.226 38.9455C287.591 39.8848 288.671 41.0909 289.466 42.5636C290.262 44.0182 290.659 45.7636 290.659 47.8V74H283.252V68.6H282.94C282.486 69.4909 281.878 70.2758 281.116 70.9545C280.355 71.6152 279.44 72.1333 278.372 72.5091C277.303 72.8848 276.164 73.0727 274.953 73.0727L272.027 74.7455ZM274.263 68.1273C275.851 68.1273 277.252 67.8091 278.466 67.1727C279.68 66.5182 280.633 65.6394 281.327 64.5364C282.021 63.4333 282.367 62.1818 282.367 60.7818V56.6182C282.058 56.8212 281.633 57.0091 281.092 57.1818C280.569 57.3545 279.976 57.5152 279.313 57.6636C278.65 57.7939 277.988 57.9152 277.327 58.0273C276.665 58.1212 276.066 58.2091 275.531 58.2909C274.376 58.4576 273.367 58.7242 272.504 59.0909C271.642 59.4576 270.972 59.9545 270.495 60.5818C270.018 61.1909 269.779 61.9515 269.779 62.8636C269.779 64.1879 270.258 65.2 271.216 65.9C272.194 66.6121 273.209 66.9788 274.263 67V68.1273Z" fill="url(#bumaInk)"/>
</svg>