<svg width="160" height="44" viewBox="0 0 160 44" fill="none" xmlns="http://www.w3.org/2000/svg">
  <!-- Icon area: rounded square with dark blue background -->
  <rect x="2" y="2" width="40" height="40" rx="12" fill="url(#iconBg)"/>
  <!-- Stylized "b" — layered rounded rects with blue gradient -->
  <rect x="11" y="12" width="12" height="20" rx="5" fill="url(#iconGrad)" fill-opacity="0.3" stroke="url(#iconGrad)" stroke-width="1.8"/>
  <rect x="11" y="12" width="12" height="10" rx="5" fill="url(#iconGrad)" fill-opacity="0.55" stroke="url(#iconGrad)" stroke-width="1.8"/>
  <line x1="23" y1="17" x2="23" y2="28" stroke="url(#iconGrad)" stroke-width="2" stroke-linecap="round"/>
  <!-- Small dot accent -->
  <circle cx="34" cy="14" r="2.5" fill="url(#iconGrad)" fill-opacity="0.7"/>
  <!-- "buma" as clean letter paths with blue gradient -->
  <!-- b -->
  <path d="M52 30V13C52 11.3 53.3 10 55 10H61C65.4 10 69 13.6 69 18C69 22.4 65.4 26 61 26H55V30H52Z" fill="url(#textGrad)"/>
  <ellipse cx="61" cy="18" rx="2" ry="2" fill="url(#textGrad)"/>
  <!-- u -->
  <path d="M73 13V24C73 26.2 74.8 28 77 28C79.2 28 81 26.2 81 24V13H77" stroke="url(#textGrad)" stroke-width="2.5" stroke-linecap="round" stroke-linejoin="round"/>
  <!-- m -->
  <path d="M87 13V24C87 26.2 88.8 28 91 28C93.2 28 95 26.2 95 24V13H91" stroke="url(#textGrad)" stroke-width="2.5" stroke-linecap="round" stroke-linejoin="round"/>
  <path d="M95 13V24C95 26.2 96.8 28 99 28C101.2 28 103 26.2 103 24V13H99" stroke="url(#textGrad)" stroke-width="2.5" stroke-linecap="round" stroke-linejoin="round"/>
  <!-- a -->
  <path d="M115 14C115 11.8 116.8 10 119 10C121.2 10 123 11.8 123 14C123 16.2 121.2 18 119 18H115V28" stroke="url(#textGrad)" stroke-width="2.5" stroke-linecap="round" stroke-linejoin="round"/>
  <path d="M119 18C121.2 18 123 19.8 123 22C123 24.2 121.2 26 119 26" stroke="url(#textGrad)" stroke-width="2.5" stroke-linecap="round"/>
  <!-- Gradient definitions -->
  <defs>
    <linearGradient id="iconBg" x1="2" y1="2" x2="42" y2="42" gradientUnits="userSpaceOnUse">
      <stop stop-color="#0e1629"/>
      <stop offset="1" stop-color="#0a1020"/>
    </linearGradient>
    <linearGradient id="iconGrad" x1="8" y1="8" x2="40" y2="40" gradientUnits="userSpaceOnUse">
      <stop stop-color="#7C5CFF"/>
      <stop offset="0.5" stop-color="#5CC8FF"/>
      <stop offset="1" stop-color="#5BE3B4"/>
    </linearGradient>
    <linearGradient id="textGrad" x1="50" y1="10" x2="124" y2="30" gradientUnits="userSpaceOnUse">
      <stop stop-color="#DCE7FF"/>
      <stop offset="0.4" stop-color="#9EB9FF"/>
      <stop offset="1" stop-color="#8F86FF"/>
    </linearGradient>
  </defs>
</svg>
