<svg width="1600" height="1200" viewBox="0 0 1600 1200" fill="none" xmlns="http://www.w3.org/2000/svg">
<rect width="1600" height="1200" rx="48" fill="#09101D"/>
<circle cx="1328" cy="192" r="280" fill="#6E9FFF" fill-opacity="0.18"/>
<circle cx="288" cy="1060" r="300" fill="#67D7D2" fill-opacity="0.16"/>
<rect x="100" y="118" width="1400" height="964" rx="42" fill="#0D1729" stroke="#243451"/>
<rect x="162" y="188" width="240" height="22" rx="11" fill="#7D86FF"/>
<rect x="162" y="246" width="654" height="34" rx="17" fill="#F5F7FF" fill-opacity="0.95"/>
<rect x="162" y="298" width="566" height="22" rx="11" fill="#94A4C6" fill-opacity="0.45"/>
<rect x="160" y="404" width="1280" height="520" rx="36" fill="#0E1A31" stroke="#293A5E"/>
<rect x="220" y="486" width="288" height="200" rx="28" fill="#121F39"/>
<rect x="656" y="486" width="288" height="200" rx="28" fill="#121F39"/>
<rect x="1092" y="486" width="288" height="200" rx="28" fill="#121F39"/>
<circle cx="364" cy="560" r="42" fill="#6E9FFF" fill-opacity="0.9"/>
<circle cx="800" cy="560" r="42" fill="#7D86FF" fill-opacity="0.9"/>
<circle cx="1236" cy="560" r="42" fill="#67D7D2" fill-opacity="0.9"/>
<path d="M508 560H656" stroke="#6E9FFF" stroke-width="10" stroke-linecap="round"/>
<path d="M944 560H1092" stroke="#7D86FF" stroke-width="10" stroke-linecap="round"/>
<rect x="280" y="634" width="170" height="18" rx="9" fill="#F5F7FF" fill-opacity="0.92"/>
<rect x="716" y="634" width="170" height="18" rx="9" fill="#F5F7FF" fill-opacity="0.92"/>
<rect x="1152" y="634" width="170" height="18" rx="9" fill="#F5F7FF" fill-opacity="0.92"/>
<rect x="280" y="672" width="128" height="14" rx="7" fill="#92A2C4" fill-opacity="0.48"/>
<rect x="716" y="672" width="128" height="14" rx="7" fill="#92A2C4" fill-opacity="0.48"/>
<rect x="1152" y="672" width="128" height="14" rx="7" fill="#92A2C4" fill-opacity="0.48"/>
<rect x="220" y="796" width="1160" height="84" rx="28" fill="url(#c)" fill-opacity="0.95"/>
<rect x="282" y="830" width="204" height="20" rx="10" fill="#F8FBFF" fill-opacity="0.95"/>
<rect x="530" y="830" width="164" height="20" rx="10" fill="#F8FBFF" fill-opacity="0.82"/>
<rect x="740" y="830" width="164" height="20" rx="10" fill="#F8FBFF" fill-opacity="0.82"/>
<rect x="950" y="830" width="164" height="20" rx="10" fill="#F8FBFF" fill-opacity="0.82"/>
<defs><linearGradient id="c" x1="220" y1="796" x2="1380" y2="880" gradientUnits="userSpaceOnUse"><stop stop-color="#6E9FFF"/><stop offset="0.5" stop-color="#7D86FF"/><stop offset="1" stop-color="#67D7D2"/></linearGradient></defs>
</svg>